Geologica-Light.ufo
<glyph name="parenright" format="2">
  <advance width="666"/>
  <unicode hex="0029"/>
  <outline>
    <contour>
      <point x="224" y="-230" type="line"/>
      <point x="390" y="36"/>
      <point x="472" y="362"/>
      <point x="472" y="688" type="curve" smooth="yes"/>
      <point x="472" y="1014"/>
      <point x="390" y="1342"/>
      <point x="224" y="1610" type="curve"/>
      <point x="144" y="1568" type="line"/>
      <point x="294" y="1324"/>
      <point x="370" y="1002"/>
      <point x="370" y="684" type="curve" smooth="yes"/>
      <point x="370" y="366"/>
      <point x="294" y="48"/>
      <point x="144" y="-188" type="curve"/>
    </contour>
  </outline>
</glyph>
<glyph name="three" format="2">
  <advance width="1156"/>
  <unicode hex="0033"/>
  <outline>
    <contour>
      <point x="522" y="-30" type="curve" smooth="yes"/>
      <point x="812" y="-30"/>
      <point x="1018" y="142"/>
      <point x="1018" y="408" type="curve" smooth="yes"/>
      <point x="1018" y="704"/>
      <point x="758" y="838"/>
      <point x="456" y="818" type="curve"/>
      <point x="954" y="1300" type="line"/>
      <point x="954" y="1400" type="line"/>
      <point x="104" y="1400" type="line"/>
      <point x="104" y="1292" type="line"/>
      <point x="794" y="1292" type="line"/>
      <point x="284" y="792" type="line"/>
      <point x="326" y="706" type="line"/>
      <point x="384" y="718"/>
      <point x="440" y="724"/>
      <point x="494" y="724" type="curve" smooth="yes"/>
      <point x="738" y="724"/>
      <point x="894" y="606"/>
      <point x="894" y="408" type="curve" smooth="yes"/>
      <point x="894" y="208"/>
      <point x="748" y="82"/>
      <point x="516" y="82" type="curve" smooth="yes"/>
      <point x="388" y="82"/>
      <point x="242" y="128"/>
      <point x="148" y="200" type="curve"/>
      <point x="98" y="94" type="line"/>
      <point x="194" y="20"/>
      <point x="360" y="-30"/>
    </contour>
  </outline>
</glyph>
<glyph name="five" format="2">
  <advance width="1156"/>
  <unicode hex="0035"/>
  <outline>
    <contour>
      <point x="522" y="-30" type="curve" smooth="yes"/>
      <point x="820" y="-30"/>
      <point x="1030" y="150"/>
      <point x="1030" y="428" type="curve" smooth="yes"/>
      <point x="1030" y="698"/>
      <point x="820" y="858"/>
      <point x="558" y="858" type="curve" smooth="yes"/>
      <point x="474" y="858"/>
      <point x="384" y="840"/>
      <point x="294" y="806" type="curve"/>
      <point x="348" y="1292" type="line"/>
      <point x="994" y="1292" type="line"/>
      <point x="994" y="1400" type="line"/>
      <point x="258" y="1396" type="line"/>
      <point x="186" y="738" type="line"/>
      <point x="236" y="690" type="line"/>
      <point x="334" y="732"/>
      <point x="432" y="754"/>
      <point x="520" y="754" type="curve" smooth="yes"/>
      <point x="738" y="754"/>
      <point x="906" y="632"/>
      <point x="906" y="428" type="curve" smooth="yes"/>
      <point x="906" y="216"/>
      <point x="756" y="82"/>
      <point x="516" y="82" type="curve" smooth="yes"/>
      <point x="388" y="82"/>
      <point x="242" y="128"/>
      <point x="148" y="200" type="curve"/>
      <point x="98" y="95" type="line"/>
      <point x="195" y="20"/>
      <point x="360" y="-30"/>
    </contour>
  </outline>
</glyph>
<glyph name="F" format="2">
  <advance width="1132"/>
  <unicode hex="0046"/>
  <outline>
    <contour>
      <point x="200" y="0" type="line"/>
      <point x="316" y="0" type="line"/>
      <point x="316" y="668" type="line"/>
      <point x="948" y="668" type="line"/>
      <point x="948" y="776" type="line"/>
      <point x="316" y="776" type="line"/>
      <point x="316" y="1292" type="line"/>
      <point x="1008" y="1292" type="line"/>
      <point x="1008" y="1400" type="line"/>
      <point x="200" y="1400" type="line"/>
    </contour>
  </outline>
</glyph>
<glyph name="L" format="2">
  <advance width="1054"/>
  <unicode hex="004C"/>
  <anchor x="588" y="0" name="bottom"/>
  <anchor x="316" y="1440" name="caron"/>
  <anchor x="258" y="1400" name="top"/>
  <outline>
    <contour>
      <point x="200" y="0" type="line"/>
      <point x="974" y="0" type="line"/>
      <point x="974" y="108" type="line"/>
      <point x="316" y="108" type="line"/>
      <point x="316" y="1400" type="line"/>
      <point x="200" y="1400" type="line"/>
    </contour>
  </outline>
</glyph>
<glyph name="S" format="2">
  <advance width="1234"/>
  <unicode hex="0053"/>
  <anchor x="622" y="0" name="bottom"/>
  <anchor x="636" y="1400" name="top"/>
  <outline>
    <contour>
      <point x="622" y="-30" type="curve" smooth="yes"/>
      <point x="940" y="-30"/>
      <point x="1110" y="128"/>
      <point x="1110" y="360" type="curve" smooth="yes"/>
      <point x="1110" y="548"/>
      <point x="1000" y="658"/>
      <point x="768" y="726" type="curve" smooth="yes"/>
      <point x="586" y="780" type="line" smooth="yes"/>
      <point x="342" y="852"/>
      <point x="272" y="926"/>
      <point x="272" y="1050" type="curve" smooth="yes"/>
      <point x="272" y="1228"/>
      <point x="416" y="1324"/>
      <point x="624" y="1324" type="curve" smooth="yes"/>
      <point x="760" y="1324"/>
      <point x="894" y="1282"/>
      <point x="990" y="1208" type="curve"/>
      <point x="1055" y="1299" type="line"/>
      <point x="958" y="1378"/>
      <point x="811" y="1430"/>
      <point x="646" y="1430" type="curve" smooth="yes"/>
      <point x="362" y="1430"/>
      <point x="164" y="1284"/>
      <point x="164" y="1042" type="curve" smooth="yes"/>
      <point x="164" y="864"/>
      <point x="274" y="758"/>
      <point x="516" y="686" type="curve" smooth="yes"/>
      <point x="684" y="636" type="line" smooth="yes"/>
      <point x="928" y="564"/>
      <point x="1002" y="480"/>
      <point x="1002" y="352" type="curve" smooth="yes"/>
      <point x="1002" y="172"/>
      <point x="852" y="78"/>
      <point x="624" y="78" type="curve" smooth="yes"/>
      <point x="468" y="78"/>
      <point x="326" y="122"/>
      <point x="216" y="204" type="curve"/>
      <point x="152" y="108" type="line"/>
      <point x="266" y="18"/>
      <point x="446" y="-30"/>
    </contour>
  </outline>
</glyph>
<glyph name="U" format="2">
  <advance width="1444"/>
  <unicode hex="0055"/>
  <guideline x="1138"/>
  <anchor x="722" y="0" name="bottom"/>
  <anchor x="1254" y="1400" name="horn"/>
  <anchor x="1038" y="0" name="ogonek"/>
  <anchor x="722" y="1400" name="top"/>
  <outline>
    <contour>
      <point x="722" y="-30" type="curve" smooth="yes"/>
      <point x="1078" y="-30"/>
      <point x="1254" y="218"/>
      <point x="1254" y="516" type="curve" smooth="yes"/>
      <point x="1254" y="1400" type="line"/>
      <point x="1138" y="1400" type="line"/>
      <point x="1138" y="532" type="line" smooth="yes"/>
      <point x="1138" y="230"/>
      <point x="974" y="82"/>
      <point x="722" y="82" type="curve" smooth="yes"/>
      <point x="470" y="82"/>
      <point x="306" y="230"/>
      <point x="306" y="532" type="curve" smooth="yes"/>
      <point x="306" y="1400" type="line"/>
      <point x="190" y="1400" type="line"/>
      <point x="190" y="516" type="line" smooth="yes"/>
      <point x="190" y="218"/>
      <point x="366" y="-30"/>
    </contour>
  </outline>
</glyph>
<glyph name="a" format="2">
  <advance width="1048"/>
  <unicode hex="0061"/>
  <anchor x="495" y="0" name="bottom"/>
  <anchor x="891" y="0" name="ogonek"/>
  <anchor x="495" y="960" name="top"/>
  <outline>
    <contour>
      <point x="433" y="-30" type="curve" smooth="yes"/>
      <point x="579" y="-30"/>
      <point x="709" y="24"/>
      <point x="779" y="126" type="curve"/>
      <point x="779" y="0" type="line"/>
      <point x="891" y="0" type="line"/>
      <point x="891" y="644" type="line" smooth="yes"/>
      <point x="891" y="874"/>
      <point x="759" y="1000"/>
      <point x="497" y="1000" type="curve" smooth="yes"/>
      <point x="391" y="1000"/>
      <point x="268" y="975"/>
      <point x="154" y="892" type="curve"/>
      <point x="195" y="792" type="line"/>
      <point x="293" y="864"/>
      <point x="393" y="892"/>
      <point x="495" y="892" type="curve" smooth="yes"/>
      <point x="673" y="892"/>
      <point x="779" y="798"/>
      <point x="779" y="644" type="curve" smooth="yes"/>
      <point x="779" y="350" type="line" smooth="yes"/>
      <point x="779" y="194"/>
      <point x="637" y="78"/>
      <point x="449" y="78" type="curve" smooth="yes"/>
      <point x="299" y="78"/>
      <point x="211" y="150"/>
      <point x="211" y="270" type="curve" smooth="yes"/>
      <point x="211" y="406"/>
      <point x="359" y="516"/>
      <point x="831" y="458" type="curve"/>
      <point x="825" y="558" type="line"/>
      <point x="289" y="618"/>
      <point x="99" y="468"/>
      <point x="99" y="270" type="curve" smooth="yes"/>
      <point x="99" y="90"/>
      <point x="223" y="-30"/>
    </contour>
  </outline>
</glyph>
<glyph name="n" format="2">
  <advance width="1154"/>
  <unicode hex="006E"/>
  <anchor x="582" y="0" name="bottom"/>
  <anchor x="592" y="960" name="top"/>
  <outline>
    <contour>
      <point x="170" y="0" type="line"/>
      <point x="282" y="0" type="line"/>
      <point x="282" y="570" type="line" smooth="yes"/>
      <point x="282" y="756"/>
      <point x="420" y="882"/>
      <point x="592" y="882" type="curve" smooth="yes"/>
      <point x="768" y="882"/>
      <point x="882" y="772"/>
      <point x="882" y="612" type="curve" smooth="yes"/>
      <point x="882" y="0" type="line"/>
      <point x="994" y="0" type="line"/>
      <point x="994" y="646" type="line" smooth="yes"/>
      <point x="994" y="808"/>
      <point x="866" y="990"/>
      <point x="612" y="990" type="curve" smooth="yes"/>
      <point x="492" y="990"/>
      <point x="370" y="940"/>
      <point x="282" y="816" type="curve"/>
      <point x="282" y="960" type="line"/>
      <point x="170" y="960" type="line"/>
    </contour>
  </outline>
</glyph>
<glyph name="braceleft" format="2">
  <advance width="666"/>
  <unicode hex="007B"/>
  <outline>
    <contour>
      <point x="532" y="-224" type="curve"/>
      <point x="532" y="-128" type="line"/>
      <point x="386" y="-142"/>
      <point x="344" y="-102"/>
      <point x="356" y="6" type="curve" smooth="yes"/>
      <point x="410" y="462" type="line" smooth="yes"/>
      <point x="428" y="606"/>
      <point x="396" y="668"/>
      <point x="286" y="690" type="curve"/>
      <point x="286" y="692" type="line"/>
      <point x="394" y="712"/>
      <point x="428" y="776"/>
      <point x="410" y="920" type="curve" smooth="yes"/>
      <point x="356" y="1374" type="line" smooth="yes"/>
      <point x="344" y="1480"/>
      <point x="388" y="1522"/>
      <point x="532" y="1508" type="curve"/>
      <point x="532" y="1604" type="line"/>
      <point x="330" y="1636"/>
      <point x="224" y="1544"/>
      <point x="244" y="1380" type="curve" smooth="yes"/>
      <point x="304" y="904" type="line" smooth="yes"/>
      <point x="322" y="768"/>
      <point x="298" y="740"/>
      <point x="134" y="740" type="curve"/>
      <point x="134" y="644" type="line"/>
      <point x="298" y="644"/>
      <point x="322" y="616"/>
      <point x="304" y="478" type="curve" smooth="yes"/>
      <point x="242" y="-4" type="line" smooth="yes"/>
      <point x="222" y="-166"/>
      <point x="326" y="-256"/>
    </contour>
  </outline>
</glyph>
<glyph name="onesuperior" format="2">
  <advance width="616"/>
  <unicode hex="00B9"/>
  <outline>
    <contour>
      <point x="338" y="722" type="line"/>
      <point x="436" y="722" type="line"/>
      <point x="436" y="1652" type="line"/>
      <point x="428" y="1652" type="line"/>
      <point x="48" y="1512" type="line"/>
      <point x="76" y="1432" type="line"/>
      <point x="338" y="1526" type="line"/>
    </contour>
  </outline>
</glyph>
<glyph name="questiondown" format="2">
  <advance width="932"/>
  <unicode hex="00BF"/>
  <outline>
    <contour>
      <point x="522" y="-460" type="curve" smooth="yes"/>
      <point x="658" y="-460"/>
      <point x="768" y="-424"/>
      <point x="856" y="-352" type="curve"/>
      <point x="808" y="-254" type="line"/>
      <point x="744" y="-312"/>
      <point x="646" y="-348"/>
      <point x="524" y="-348" type="curve" smooth="yes"/>
      <point x="336" y="-348"/>
      <point x="220" y="-270"/>
      <point x="220" y="-112" type="curve" smooth="yes"/>
      <point x="220" y="-22"/>
      <point x="258" y="46"/>
      <point x="422" y="150" type="curve" smooth="yes"/>
      <point x="612" y="270"/>
      <point x="640" y="352"/>
      <point x="594" y="592" type="curve"/>
      <point x="474" y="592" type="line"/>
      <point x="514" y="380"/>
      <point x="484" y="316"/>
      <point x="342" y="226" type="curve" smooth="yes"/>
      <point x="148" y="102"/>
      <point x="100" y="-4"/>
      <point x="100" y="-120" type="curve" smooth="yes"/>
      <point x="100" y="-338"/>
      <point x="274" y="-460"/>
    </contour>
    <contour>
      <point x="520" y="792" type="curve" smooth="yes"/>
      <point x="582" y="792"/>
      <point x="630" y="836"/>
      <point x="630" y="896" type="curve" smooth="yes"/>
      <point x="630" y="956"/>
      <point x="582" y="1000"/>
      <point x="520" y="1000" type="curve" smooth="yes"/>
      <point x="458" y="1000"/>
      <point x="410" y="956"/>
      <point x="410" y="896" type="curve" smooth="yes"/>
      <point x="410" y="836"/>
      <point x="458" y="792"/>
    </contour>
  </outline>
</glyph>
<glyph name="kgreenlandic" format="2">
  <advance width="1026"/>
  <unicode hex="0138"/>
  <outline>
    <contour>
      <point x="170" y="0" type="line"/>
      <point x="282" y="0" type="line"/>
      <point x="282" y="356" type="line"/>
      <point x="470" y="542" type="line"/>
      <point x="826" y="0" type="line"/>
      <point x="966" y="0" type="line"/>
      <point x="552" y="614" type="line"/>
      <point x="894" y="960" type="line"/>
      <point x="754" y="960" type="line"/>
      <point x="282" y="494" type="line"/>
      <point x="282" y="960" type="line"/>
      <point x="170" y="960" type="line"/>
    </contour>
  </outline>
</glyph>
<glyph name="Eng" format="2">
  <advance width="1452"/>
  <unicode hex="014A"/>
  <guideline x="568" y="406" angle="270"/>
  <outline>
    <contour>
      <point x="1154" y="-2" type="line"/>
      <point x="1154" y="198" type="line"/>
      <point x="300" y="1400" type="line"/>
      <point x="200" y="1400" type="line"/>
      <point x="200" y="0" type="line"/>
      <point x="316" y="0" type="line"/>
      <point x="316" y="1188" type="line"/>
    </contour>
    <contour>
      <point x="1020" y="-450" type="curve" smooth="yes"/>
      <point x="1164" y="-450"/>
      <point x="1252" y="-356"/>
      <point x="1252" y="-194" type="curve" smooth="yes"/>
      <point x="1252" y="1400" type="line"/>
      <point x="1136" y="1400" type="line"/>
      <point x="1136" y="-174" type="line" smooth="yes"/>
      <point x="1136" y="-284"/>
      <point x="1104" y="-342"/>
      <point x="1004" y="-342" type="curve" smooth="yes"/>
      <point x="950" y="-342"/>
      <point x="922" y="-330"/>
      <point x="890" y="-314" type="curve"/>
      <point x="852" y="-410" type="line"/>
      <point x="892" y="-430"/>
      <point x="952" y="-450"/>
    </contour>
  </outline>
</glyph>
<glyph name="florin" format="2">
  <advance width="1296"/>
  <unicode hex="0192"/>
  <outline>
    <contour>
      <point x="186" y="-452" type="curve" smooth="yes"/>
      <point x="360" y="-452"/>
      <point x="464" y="-348"/>
      <point x="512" y="-134" type="curve" smooth="yes"/>
      <point x="790" y="1112" type="line" smooth="yes"/>
      <point x="826" y="1270"/>
      <point x="880" y="1326"/>
      <point x="1002" y="1326" type="curve" smooth="yes"/>
      <point x="1070" y="1326"/>
      <point x="1146" y="1290"/>
      <point x="1172" y="1254" type="curve"/>
      <point x="1206" y="1360" type="line"/>
      <point x="1158" y="1402"/>
      <point x="1092" y="1430"/>
      <point x="1002" y="1430" type="curve" smooth="yes"/>
      <point x="828" y="1430"/>
      <point x="724" y="1326"/>
      <point x="676" y="1112" type="curve" smooth="yes"/>
      <point x="398" y="-134" type="line" smooth="yes"/>
      <point x="362" y="-292"/>
      <point x="308" y="-348"/>
      <point x="186" y="-348" type="curve" smooth="yes"/>
      <point x="118" y="-348"/>
      <point x="42" y="-312"/>
      <point x="16" y="-276" type="curve"/>
      <point x="-18" y="-382" type="line"/>
      <point x="30" y="-424"/>
      <point x="96" y="-452"/>
    </contour>
    <contour>
      <point x="178" y="638" type="line"/>
      <point x="1114" y="638" type="line"/>
      <point x="1114" y="738" type="line"/>
      <point x="178" y="738" type="line"/>
    </contour>
  </outline>
</glyph>
<glyph name="jdotless" format="2">
  <advance width="452"/>
  <unicode hex="0237"/>
  <anchor x="226" y="960" name="top"/>
  <outline>
    <contour>
      <point x="54" y="-450" type="curve" smooth="yes"/>
      <point x="196" y="-450"/>
      <point x="282" y="-356"/>
      <point x="282" y="-194" type="curve" smooth="yes"/>
      <point x="282" y="960" type="line"/>
      <point x="170" y="960" type="line"/>
      <point x="170" y="-174" type="line" smooth="yes"/>
      <point x="170" y="-284"/>
      <point x="138" y="-342"/>
      <point x="38" y="-342" type="curve" smooth="yes"/>
      <point x="-16" y="-342"/>
      <point x="-44" y="-330"/>
      <point x="-76" y="-314" type="curve"/>
      <point x="-114" y="-410" type="line"/>
      <point x="-74" y="-430"/>
      <point x="-15" y="-450"/>
    </contour>
  </outline>
</glyph>
<glyph name="schwa" format="2">
  <advance width="1100"/>
  <unicode hex="0259"/>
  <outline>
    <contour>
      <point x="538" y="-30" type="curve" smooth="yes"/>
      <point x="822" y="-30"/>
      <point x="1020" y="186"/>
      <point x="1020" y="498" type="curve" smooth="yes"/>
      <point x="1020" y="796"/>
      <point x="820" y="990"/>
      <point x="518" y="990" type="curve" smooth="yes"/>
      <point x="378" y="990"/>
      <point x="247" y="944"/>
      <point x="150" y="862" type="curve"/>
      <point x="210" y="774" type="line"/>
      <point x="284" y="842"/>
      <point x="392" y="882"/>
      <point x="518" y="882" type="curve" smooth="yes"/>
      <point x="738" y="882"/>
      <point x="896" y="728"/>
      <point x="896" y="498" type="curve" smooth="yes"/>
      <point x="896" y="228"/>
      <point x="768" y="78"/>
      <point x="538" y="78" type="curve" smooth="yes"/>
      <point x="342" y="78"/>
      <point x="204" y="212"/>
      <point x="204" y="438" type="curve"/>
      <point x="158" y="398" type="line"/>
      <point x="918" y="398" type="line"/>
      <point x="922" y="502" type="line"/>
      <point x="84" y="502" type="line"/>
      <point x="48" y="182"/>
      <point x="260" y="-30"/>
    </contour>
  </outline>
</glyph>
<glyph name="macroncomb" format="2">
  <unicode hex="0304"/>
  <anchor x="-586" y="960" name="_top"/>
  <outline>
    <contour>
      <point x="-874" y="1230" type="line"/>
      <point x="-298" y="1230" type="line"/>
      <point x="-298" y="1334" type="line"/>
      <point x="-874" y="1334" type="line"/>
    </contour>
  </outline>
</glyph>
<glyph name="dieresiscomb" format="2">
  <unicode hex="0308"/>
  <anchor x="-586" y="960" name="_top"/>
  <anchor x="-586" y="1284" name="top"/>
  <outline>
    <contour>
      <point x="-768" y="1162" type="curve" smooth="yes"/>
      <point x="-716" y="1162"/>
      <point x="-674" y="1204"/>
      <point x="-674" y="1256" type="curve" smooth="yes"/>
      <point x="-674" y="1308"/>
      <point x="-716" y="1350"/>
      <point x="-768" y="1350" type="curve" smooth="yes"/>
      <point x="-820" y="1350"/>
      <point x="-862" y="1308"/>
      <point x="-862" y="1256" type="curve" smooth="yes"/>
      <point x="-862" y="1204"/>
      <point x="-820" y="1162"/>
    </contour>
    <contour>
      <point x="-404" y="1162" type="curve" smooth="yes"/>
      <point x="-352" y="1162"/>
      <point x="-310" y="1204"/>
      <point x="-310" y="1256" type="curve" smooth="yes"/>
      <point x="-310" y="1308"/>
      <point x="-352" y="1350"/>
      <point x="-404" y="1350" type="curve" smooth="yes"/>
      <point x="-456" y="1350"/>
      <point x="-498" y="1308"/>
      <point x="-498" y="1256" type="curve" smooth="yes"/>
      <point x="-498" y="1204"/>
      <point x="-456" y="1162"/>
    </contour>
  </outline>
</glyph>
<glyph name="hungarumlautcomb" format="2">
  <unicode hex="030B"/>
  <anchor x="-586" y="960" name="_top"/>
  <outline>
    <contour>
      <point x="-470" y="1170" type="line"/>
      <point x="-362" y="1170" type="line"/>
      <point x="-168" y="1504" type="line"/>
      <point x="-288" y="1504" type="line"/>
    </contour>
    <contour>
      <point x="-810" y="1170" type="line"/>
      <point x="-702" y="1170" type="line"/>
      <point x="-508" y="1504" type="line"/>
      <point x="-628" y="1504" type="line"/>
    </contour>
  </outline>
</glyph>
<glyph name="commaaccentcomb" format="2">
  <unicode hex="0326"/>
  <anchor x="-586" y="0" name="_bottom"/>
  <outline>
    <contour>
      <point x="-681" y="-653" type="line"/>
      <point x="-555" y="-583"/>
      <point x="-481" y="-486"/>
      <point x="-481" y="-400" type="curve" smooth="yes"/>
      <point x="-481" y="-327"/>
      <point x="-523" y="-284"/>
      <point x="-587" y="-284" type="curve" smooth="yes"/>
      <point x="-644" y="-284"/>
      <point x="-686" y="-322"/>
      <point x="-686" y="-372" type="curve" smooth="yes"/>
      <point x="-686" y="-423"/>
      <point x="-640" y="-460"/>
      <point x="-581" y="-456" type="curve"/>
      <point x="-594" y="-501"/>
      <point x="-659" y="-554"/>
      <point x="-735" y="-591" type="curve"/>
    </contour>
  </outline>
</glyph>
<glyph name="tonos" format="2">
  <advance width="450"/>
  <unicode hex="0384"/>
  <guideline x="200" y="928" angle="90"/>
  <anchor x="200" y="960" name="_top"/>
  <outline>
    <contour>
      <point x="138" y="1170" type="line"/>
      <point x="246" y="1170" type="line"/>
      <point x="388" y="1504" type="line"/>
      <point x="268" y="1504" type="line"/>
    </contour>
  </outline>
</glyph>
<glyph name="alpha" format="2">
  <advance width="1312"/>
  <unicode hex="03B1"/>
  <anchor x="666" y="960" name="top"/>
  <outline>
    <contour>
      <point x="554" y="-30" type="curve" smooth="yes"/>
      <point x="732" y="-30"/>
      <point x="846" y="44"/>
      <point x="914" y="176" type="curve"/>
      <point x="922" y="8"/>
      <point x="1052" y="-70"/>
      <point x="1232" y="-8" type="curve"/>
      <point x="1214" y="92" type="line"/>
      <point x="1032" y="46"/>
      <point x="962" y="142"/>
      <point x="1036" y="520" type="curve" smooth="yes"/>
      <point x="1122" y="960" type="line"/>
      <point x="1014" y="960" type="line"/>
      <point x="960" y="684" type="line"/>
      <point x="906" y="850"/>
      <point x="776" y="990"/>
      <point x="548" y="990" type="curve" smooth="yes"/>
      <point x="266" y="990"/>
      <point x="80" y="758"/>
      <point x="80" y="480" type="curve" smooth="yes"/>
      <point x="80" y="202"/>
      <point x="266" y="-30"/>
    </contour>
    <contour>
      <point x="556" y="78" type="curve" smooth="yes"/>
      <point x="336" y="78"/>
      <point x="200" y="234"/>
      <point x="200" y="480" type="curve" smooth="yes"/>
      <point x="200" y="726"/>
      <point x="336" y="882"/>
      <point x="548" y="882" type="curve" smooth="yes"/>
      <point x="844" y="882"/>
      <point x="892" y="570"/>
      <point x="918" y="468" type="curve"/>
      <point x="870" y="258"/>
      <point x="790" y="78"/>
    </contour>
  </outline>
</glyph>
<glyph name="kappa" format="2">
  <advance width="1056"/>
  <unicode hex="03BA"/>
  <outline>
    <contour>
      <point x="170" y="0" type="line"/>
      <point x="282" y="0" type="line"/>
      <point x="282" y="340" type="line"/>
      <point x="470" y="526" type="line"/>
      <point x="826" y="0" type="line"/>
      <point x="966" y="0" type="line"/>
      <point x="552" y="598" type="line"/>
      <point x="618" y="664" type="line" smooth="yes"/>
      <point x="758" y="804"/>
      <point x="830" y="888"/>
      <point x="938" y="864" type="curve"/>
      <point x="930" y="970" type="line"/>
      <point x="794" y="996"/>
      <point x="700" y="886"/>
      <point x="536" y="726" type="curve" smooth="yes"/>
      <point x="282" y="478" type="line"/>
      <point x="282" y="960" type="line"/>
      <point x="170" y="960" type="line"/>
    </contour>
  </outline>
</glyph>
<glyph name="rho" format="2">
  <advance width="1224"/>
  <unicode hex="03C1"/>
  <outline>
    <contour>
      <point x="140" y="-420" type="line"/>
      <point x="252" y="-420" type="line"/>
      <point x="252" y="170" type="line"/>
      <point x="328" y="50"/>
      <point x="482" y="-30"/>
      <point x="650" y="-30" type="curve" smooth="yes"/>
      <point x="940" y="-30"/>
      <point x="1144" y="202"/>
      <point x="1144" y="480" type="curve" smooth="yes"/>
      <point x="1144" y="762"/>
      <point x="946" y="990"/>
      <point x="638" y="990" type="curve" smooth="yes"/>
      <point x="348" y="990"/>
      <point x="140" y="758"/>
      <point x="140" y="480" type="curve" smooth="yes"/>
    </contour>
    <contour>
      <point x="638" y="78" type="curve" smooth="yes"/>
      <point x="412" y="78"/>
      <point x="252" y="234"/>
      <point x="252" y="480" type="curve" smooth="yes"/>
      <point x="252" y="726"/>
      <point x="412" y="882"/>
      <point x="638" y="882" type="curve" smooth="yes"/>
      <point x="864" y="882"/>
      <point x="1024" y="726"/>
      <point x="1024" y="480" type="curve" smooth="yes"/>
      <point x="1024" y="234"/>
      <point x="864" y="78"/>
    </contour>
  </outline>
</glyph>
<glyph name="sigmafinal" format="2">
  <advance width="950"/>
  <unicode hex="03C2"/>
  <outline>
    <contour>
      <point x="739" y="-436" type="line"/>
      <point x="798" y="-316"/>
      <point x="823" y="-231"/>
      <point x="823" y="-156" type="curve" smooth="yes"/>
      <point x="823" y="222"/>
      <point x="200" y="103"/>
      <point x="200" y="512" type="curve" smooth="yes"/>
      <point x="200" y="742"/>
      <point x="348" y="882"/>
      <point x="582" y="882" type="curve" smooth="yes"/>
      <point x="682" y="882"/>
      <point x="773" y="856"/>
      <point x="836" y="808" type="curve"/>
      <point x="904" y="900" type="line"/>
      <point x="812" y="962"/>
      <point x="712" y="990"/>
      <point x="590" y="990" type="curve" smooth="yes"/>
      <point x="294" y="990"/>
      <point x="80" y="787"/>
      <point x="80" y="510" type="curve" smooth="yes"/>
      <point x="80" y="22"/>
      <point x="711" y="94"/>
      <point x="711" y="-178" type="curve" smooth="yes"/>
      <point x="711" y="-229"/>
      <point x="697" y="-291"/>
      <point x="639" y="-400" type="curve"/>
    </contour>
  </outline>
</glyph>
<glyph name="sigma" format="2">
  <advance width="1250"/>
  <unicode hex="03C3"/>
  <outline>
    <contour>
      <point x="580" y="-30" type="curve" smooth="yes"/>
      <point x="864" y="-30"/>
      <point x="1064" y="190"/>
      <point x="1064" y="468" type="curve" smooth="yes"/>
      <point x="1064" y="622"/>
      <point x="1004" y="770"/>
      <point x="860" y="856" type="curve"/>
      <point x="1186" y="856" type="line"/>
      <point x="1186" y="960" type="line"/>
      <point x="576" y="960" type="line" smooth="yes"/>
      <point x="290" y="960"/>
      <point x="80" y="766"/>
      <point x="80" y="480" type="curve" smooth="yes"/>
      <point x="80" y="202"/>
      <point x="290" y="-30"/>
    </contour>
    <contour>
      <point x="584" y="78" type="curve" smooth="yes"/>
      <point x="356" y="78"/>
      <point x="200" y="234"/>
      <point x="200" y="480" type="curve" smooth="yes"/>
      <point x="200" y="726"/>
      <point x="362" y="852"/>
      <point x="574" y="852" type="curve" smooth="yes"/>
      <point x="798" y="852"/>
      <point x="946" y="710"/>
      <point x="946" y="464" type="curve" smooth="yes"/>
      <point x="946" y="218"/>
      <point x="802" y="78"/>
    </contour>
  </outline>
</glyph>
<glyph name="U-cy" format="2">
  <advance width="1216"/>
  <unicode hex="0423"/>
  <guideline x="539" y="488" angle="62.8448"/>
  <anchor x="678" y="1400" name="top"/>
  <outline>
    <contour>
      <point x="204" y="-20" type="line"/>
      <point x="434" y="58"/>
      <point x="594" y="224"/>
      <point x="760" y="550" type="curve" smooth="yes"/>
      <point x="1196" y="1400" type="line"/>
      <point x="1062" y="1400" type="line"/>
      <point x="636" y="546" type="line" smooth="yes"/>
      <point x="508" y="290"/>
      <point x="342" y="150"/>
      <point x="144" y="90" type="curve"/>
    </contour>
    <contour>
      <point x="634" y="492" type="line"/>
      <point x="710" y="608" type="line"/>
      <point x="252" y="1400" type="line"/>
      <point x="108" y="1400" type="line"/>
    </contour>
  </outline>
</glyph>
<glyph name="ge-cy" format="2">
  <advance width="830"/>
  <unicode hex="0433"/>
  <anchor x="342" y="486" name="bar"/>
  <anchor x="282" y="0" name="descender"/>
  <anchor x="470" y="960" name="top"/>
  <outline>
    <contour>
      <point x="170" y="0" type="line"/>
      <point x="282" y="0" type="line"/>
      <point x="282" y="856" type="line"/>
      <point x="772" y="856" type="line"/>
      <point x="772" y="960" type="line"/>
      <point x="170" y="960" type="line"/>
    </contour>
  </outline>
</glyph>
<glyph name="de-cy" format="2">
  <advance width="1255"/>
  <unicode hex="0434"/>
  <outline>
    <contour>
      <point x="893" y="0" type="line"/>
      <point x="1005" y="0" type="line"/>
      <point x="1005" y="960" type="line"/>
      <point x="275" y="960" type="line"/>
      <point x="275" y="664" type="line" smooth="yes"/>
      <point x="275" y="292"/>
      <point x="241" y="152"/>
      <point x="41" y="98" type="curve"/>
      <point x="87" y="30" type="line"/>
      <point x="337" y="92"/>
      <point x="387" y="258"/>
      <point x="387" y="664" type="curve" smooth="yes"/>
      <point x="387" y="856" type="line"/>
      <point x="893" y="856" type="line"/>
    </contour>
    <contour>
      <point x="41" y="-300" type="line"/>
      <point x="145" y="-300" type="line"/>
      <point x="145" y="0" type="line"/>
      <point x="1097" y="0" type="line"/>
      <point x="1097" y="-300" type="line"/>
      <point x="1201" y="-300" type="line"/>
      <point x="1201" y="104" type="line"/>
      <point x="159" y="104" type="line"/>
      <point x="143" y="84" type="line"/>
      <point x="41" y="98" type="line"/>
    </contour>
  </outline>
</glyph>
<glyph name="ka-cy" format="2">
  <advance width="1026"/>
  <unicode hex="043A"/>
  <guideline x="264" y="480" angle="90"/>
  <guideline x="316" y="371" angle="57.2251"/>
  <anchor x="886" y="0" name="descender"/>
  <anchor x="508" y="960" name="top"/>
  <outline>
    <contour>
      <point x="826" y="0" type="line"/>
      <point x="966" y="0" type="line"/>
      <point x="612" y="522" type="line"/>
      <point x="894" y="960" type="line"/>
      <point x="770" y="960" type="line"/>
      <point x="488" y="518" type="line"/>
    </contour>
    <contour>
      <point x="170" y="0" type="line"/>
      <point x="282" y="0" type="line"/>
      <point x="282" y="460" type="line"/>
      <point x="566" y="460" type="line"/>
      <point x="566" y="564" type="line"/>
      <point x="282" y="564" type="line"/>
      <point x="282" y="960" type="line"/>
      <point x="170" y="960" type="line"/>
    </contour>
  </outline>
</glyph>
<glyph name="hardsign-cy" format="2">
  <advance width="1210"/>
  <unicode hex="044A"/>
  <guideline x="213" y="480" angle="180"/>
  <anchor x="426" y="960" name="top"/>
  <outline>
    <contour>
      <point x="370" y="0" type="line"/>
      <point x="728" y="0" type="line" smooth="yes"/>
      <point x="960" y="0"/>
      <point x="1120" y="112"/>
      <point x="1120" y="306" type="curve" smooth="yes"/>
      <point x="1120" y="502"/>
      <point x="978" y="616"/>
      <point x="748" y="616" type="curve" smooth="yes"/>
      <point x="456" y="616" type="line"/>
      <point x="456" y="512" type="line"/>
      <point x="742" y="512" type="line" smooth="yes"/>
      <point x="914" y="512"/>
      <point x="1000" y="442"/>
      <point x="1000" y="306" type="curve" smooth="yes"/>
      <point x="1000" y="168"/>
      <point x="910" y="104"/>
      <point x="724" y="104" type="curve" smooth="yes"/>
      <point x="482" y="104" type="line"/>
      <point x="482" y="960" type="line"/>
      <point x="370" y="960" type="line"/>
    </contour>
    <contour>
      <point x="52" y="856" type="line"/>
      <point x="370" y="856" type="line"/>
      <point x="482" y="960" type="line"/>
      <point x="52" y="960" type="line"/>
    </contour>
  </outline>
</glyph>
<glyph name="lje-cy" format="2">
  <advance width="1672"/>
  <unicode hex="0459"/>
  <outline>
    <contour>
      <point x="98" y="-10" type="line"/>
      <point x="340" y="64"/>
      <point x="386" y="232"/>
      <point x="386" y="664" type="curve" smooth="yes"/>
      <point x="386" y="856" type="line"/>
      <point x="832" y="856" type="line"/>
      <point x="944" y="960" type="line"/>
      <point x="274" y="960" type="line"/>
      <point x="274" y="664" type="line" smooth="yes"/>
      <point x="274" y="290"/>
      <point x="254" y="150"/>
      <point x="50" y="98" type="curve"/>
    </contour>
    <contour>
      <point x="832" y="0" type="line"/>
      <point x="1190" y="0" type="line" smooth="yes"/>
      <point x="1422" y="0"/>
      <point x="1582" y="112"/>
      <point x="1582" y="306" type="curve" smooth="yes"/>
      <point x="1582" y="502"/>
      <point x="1440" y="616"/>
      <point x="1210" y="616" type="curve" smooth="yes"/>
      <point x="918" y="616" type="line"/>
      <point x="918" y="512" type="line"/>
      <point x="1204" y="512" type="line" smooth="yes"/>
      <point x="1376" y="512"/>
      <point x="1462" y="442"/>
      <point x="1462" y="306" type="curve" smooth="yes"/>
      <point x="1462" y="168"/>
      <point x="1372" y="104"/>
      <point x="1186" y="104" type="curve" smooth="yes"/>
      <point x="944" y="104" type="line"/>
      <point x="944" y="960" type="line"/>
      <point x="832" y="960" type="line"/>
    </contour>
  </outline>
</glyph>
<glyph name="yusbig-cy" format="2">
  <advance width="1466"/>
  <unicode hex="046B"/>
  <anchor x="1326" y="0" name="descender"/>
  <outline>
    <contour>
      <point x="60" y="0" type="line"/>
      <point x="194" y="0" type="line"/>
      <point x="492" y="502" type="line"/>
      <point x="286" y="856" type="line"/>
      <point x="1182" y="856" type="line"/>
      <point x="974" y="500" type="line"/>
      <point x="1268" y="0" type="line"/>
      <point x="1406" y="0" type="line"/>
      <point x="1098" y="506" type="line"/>
      <point x="1308" y="864" type="line"/>
      <point x="1308" y="960" type="line"/>
      <point x="156" y="960" type="line"/>
      <point x="156" y="864" type="line"/>
      <point x="368" y="498" type="line"/>
    </contour>
    <contour>
      <point x="678" y="0" type="line"/>
      <point x="790" y="0" type="line"/>
      <point x="790" y="460" type="line"/>
      <point x="1046" y="460" type="line"/>
      <point x="1046" y="564" type="line"/>
      <point x="420" y="564" type="line"/>
      <point x="420" y="460" type="line"/>
      <point x="678" y="460" type="line"/>
    </contour>
  </outline>
</glyph>
<glyph name="endash" format="2">
  <advance width="1000"/>
  <unicode hex="2013"/>
  <outline>
    <contour>
      <point x="60" y="514" type="line"/>
      <point x="940" y="514" type="line"/>
      <point x="940" y="606" type="line"/>
      <point x="60" y="606" type="line"/>
    </contour>
  </outline>
</glyph>
<glyph name="foursuperior" format="2">
  <advance width="844"/>
  <unicode hex="2074"/>
  <outline>
    <contour>
      <point x="528" y="722" type="line"/>
      <point x="624" y="722" type="line"/>
      <point x="624" y="918" type="line"/>
      <point x="778" y="918" type="line"/>
      <point x="778" y="1010" type="line"/>
      <point x="624" y="1010" type="line"/>
      <point x="624" y="1226" type="line"/>
      <point x="528" y="1226" type="line"/>
      <point x="528" y="1010" type="line"/>
      <point x="162" y="1010" type="line"/>
      <point x="520" y="1632" type="line"/>
      <point x="408" y="1632" type="line"/>
      <point x="48" y="1002" type="line"/>
      <point x="48" y="918" type="line"/>
      <point x="528" y="918" type="line"/>
    </contour>
  </outline>
</glyph>
<glyph name="franc" format="2">
  <advance width="1296"/>
  <unicode hex="20A3"/>
  <outline>
    <contour>
      <point x="140" y="258" type="line"/>
      <point x="692" y="258" type="line"/>
      <point x="692" y="358" type="line"/>
      <point x="140" y="358" type="line"/>
    </contour>
    <component base="_part.franc" xOffset="140"/>
  </outline>
</glyph>
<glyph name="leftArrow" format="2">
  <advance width="1800"/>
  <unicode hex="2190"/>
  <outline>
    <contour>
      <point x="600" y="170" type="line"/>
      <point x="668" y="238" type="line"/>
      <point x="220" y="684" type="line"/>
      <point x="1720" y="684" type="line"/>
      <point x="1720" y="780" type="line"/>
      <point x="220" y="780" type="line"/>
      <point x="668" y="1226" type="line"/>
      <point x="600" y="1294" type="line"/>
      <point x="38" y="732" type="line"/>
    </contour>
  </outline>
</glyph>
<glyph name="northWestArrow" format="2">
  <advance width="1800"/>
  <unicode hex="2196"/>
  <outline>
    <contour>
      <point x="1484" y="8" type="line"/>
      <point x="1552" y="76" type="line"/>
      <point x="324" y="1304" type="line"/>
      <point x="954" y="1304" type="line"/>
      <point x="954" y="1400" type="line"/>
      <point x="160" y="1400" type="line"/>
      <point x="162" y="606" type="line"/>
      <point x="256" y="606" type="line"/>
      <point x="256" y="1236" type="line"/>
    </contour>
  </outline>
</glyph>
<glyph name="southWestArrow" format="2">
  <advance width="1800"/>
  <unicode hex="2199"/>
  <outline>
    <contour>
      <point x="160" y="0" type="line"/>
      <point x="954" y="0" type="line"/>
      <point x="954" y="96" type="line"/>
      <point x="324" y="96" type="line"/>
      <point x="1552" y="1324" type="line"/>
      <point x="1484" y="1392" type="line"/>
      <point x="256" y="164" type="line"/>
      <point x="256" y="794" type="line"/>
      <point x="162" y="794" type="line"/>
    </contour>
  </outline>
</glyph>
<glyph name="leftanglebracket-math" format="2">
  <advance width="1296"/>
  <unicode hex="27E8"/>
  <guideline x="509" y="814" angle="55.5267"/>
  <guideline x="1026" y="-282" angle="34.9025"/>
  <guideline x="1026" y="1610" angle="325.09749999999997"/>
  <outline>
    <contour>
      <point x="1010" y="-416" type="line"/>
      <point x="1084" y="-364" type="line"/>
      <point x="366" y="664" type="line"/>
      <point x="1084" y="1692" type="line"/>
      <point x="1010" y="1744" type="line"/>
      <point x="254" y="664" type="line"/>
    </contour>
  </outline>
</glyph>
<glyph name="rightanglebracket-math" format="2">
  <advance width="1296"/>
  <unicode hex="27E9"/>
  <outline>
    <contour>
      <point x="286" y="-416" type="line"/>
      <point x="1042" y="664" type="line"/>
      <point x="286" y="1744" type="line"/>
      <point x="212" y="1692" type="line"/>
      <point x="930" y="664" type="line"/>
      <point x="212" y="-364" type="line"/>
    </contour>
  </outline>
</glyph>
<glyph name="_part.Kaverticalstroke-cy" format="2">
  <advance width="1314"/>
  <guideline x="329" y="700" angle="90"/>
  <guideline x="158" y="376" angle="180"/>
  <anchor x="516" y="752" name="center"/>
  <outline>
    <contour>
      <point x="1072" y="0" type="line"/>
      <point x="1224" y="0" type="line"/>
      <point x="670" y="756" type="line"/>
      <point x="1136" y="1400" type="line"/>
      <point x="998" y="1400" type="line"/>
      <point x="528" y="754" type="line"/>
    </contour>
    <contour>
      <point x="200" y="0" type="line"/>
      <point x="316" y="0" type="line"/>
      <point x="316" y="698" type="line"/>
      <point x="610" y="698" type="line"/>
      <point x="610" y="806" type="line"/>
      <point x="316" y="806" type="line"/>
      <point x="316" y="1400" type="line"/>
      <point x="200" y="1400" type="line"/>
    </contour>
  </outline>
</glyph>
<glyph name="_part.currencyVertDiagAdjusted" format="2">
  <advance width="1424"/>
  <anchor x="812" y="1400" name="_top"/>
  <outline>
    <contour>
      <point x="720" y="-160" type="line"/>
      <point x="814" y="-160" type="line"/>
      <point x="1118" y="1560" type="line"/>
      <point x="1020" y="1560" type="line"/>
    </contour>
    <contour>
      <point x="414" y="-160" type="line"/>
      <point x="512" y="-160" type="line"/>
      <point x="566" y="145" type="line"/>
      <point x="468" y="145" type="line"/>
    </contour>
    <contour>
      <point x="674" y="1335" type="line"/>
      <point x="772" y="1335" type="line"/>
      <point x="812" y="1560" type="line"/>
      <point x="714" y="1560" type="line"/>
    </contour>
  </outline>
</glyph>
<glyph name="_part.heng" format="2">
  <advance width="1084"/>
  <anchor x="342" y="1204" name="bar"/>
  <outline>
    <contour>
      <point x="588" y="-270" type="line"/>
      <point x="856" y="-164"/>
      <point x="994" y="92"/>
      <point x="994" y="484" type="curve" smooth="yes"/>
      <point x="994" y="816"/>
      <point x="862" y="990"/>
      <point x="608" y="990" type="curve" smooth="yes"/>
      <point x="472" y="990"/>
      <point x="346" y="914"/>
      <point x="282" y="816" type="curve"/>
      <point x="282" y="1440" type="line"/>
      <point x="170" y="1440" type="line"/>
      <point x="170" y="0" type="line"/>
      <point x="282" y="0" type="line"/>
      <point x="282" y="570" type="line" smooth="yes"/>
      <point x="282" y="750"/>
      <point x="412" y="882"/>
      <point x="588" y="882" type="curve" smooth="yes"/>
      <point x="782" y="882"/>
      <point x="874" y="752"/>
      <point x="874" y="484" type="curve" smooth="yes"/>
      <point x="874" y="144"/>
      <point x="760" y="-83"/>
      <point x="538" y="-177" type="curve"/>
    </contour>
  </outline>
</glyph>
<glyph name="_part.peso" format="2">
  <advance width="1296"/>
  <outline>
    <contour>
      <point x="290" y="0" type="line"/>
      <point x="404" y="0" type="line"/>
      <point x="404" y="606" type="line"/>
      <point x="700" y="606" type="line" smooth="yes"/>
      <point x="976" y="606"/>
      <point x="1132" y="744"/>
      <point x="1132" y="1002" type="curve" smooth="yes"/>
      <point x="1132" y="1248"/>
      <point x="952" y="1400"/>
      <point x="702" y="1400" type="curve" smooth="yes"/>
      <point x="290" y="1400" type="line"/>
    </contour>
    <contour>
      <point x="404" y="710" type="line"/>
      <point x="404" y="1296" type="line"/>
      <point x="712" y="1296" type="line" smooth="yes"/>
      <point x="900" y="1296"/>
      <point x="1018" y="1178"/>
      <point x="1018" y="998" type="curve" smooth="yes"/>
      <point x="1018" y="810"/>
      <point x="906" y="710"/>
      <point x="710" y="710" type="curve" smooth="yes"/>
    </contour>
  </outline>
</glyph>
<glyph name="_part.verticalstroke.case" format="2">
  <advance width="1314"/>
  <anchor x="510" y="780" name="_center"/>
  <outline>
    <contour>
      <point x="460" y="460" type="line"/>
      <point x="560" y="460" type="line"/>
      <point x="560" y="1100" type="line"/>
      <point x="460" y="1100" type="line"/>
    </contour>
  </outline>
</glyph>
<glyph name="_part.won" format="2">
  <advance width="1296"/>
  <anchor x="648" y="1400" name="top"/>
  <outline>
    <contour>
      <point x="326" y="0" type="line"/>
      <point x="458" y="0" type="line"/>
      <point x="648" y="1224" type="line"/>
      <point x="836" y="0" type="line"/>
      <point x="968" y="0" type="line"/>
      <point x="1214" y="1400" type="line"/>
      <point x="1098" y="1400" type="line"/>
      <point x="904" y="202" type="line"/>
      <point x="720" y="1400" type="line"/>
      <point x="578" y="1400" type="line"/>
      <point x="394" y="200" type="line"/>
      <point x="200" y="1400" type="line"/>
      <point x="82" y="1400" type="line"/>
    </contour>
  </outline>
</glyph>
<glyph name="ae.ss01" format="2">
  <advance width="1992"/>
  <anchor x="1036" y="960" name="top"/>
  <outline>
    <contour>
      <point x="584" y="-30" type="curve" smooth="yes"/>
      <point x="780" y="-30"/>
      <point x="900" y="60"/>
      <point x="982" y="176" type="curve"/>
      <point x="964" y="202" type="line"/>
      <point x="964" y="0" type="line"/>
      <point x="1076" y="0" type="line"/>
      <point x="1076" y="204" type="line"/>
      <point x="1058" y="180" type="line"/>
      <point x="1146" y="48"/>
      <point x="1298" y="-30"/>
      <point x="1482" y="-30" type="curve" smooth="yes"/>
      <point x="1608" y="-30"/>
      <point x="1746" y="8"/>
      <point x="1846" y="90" type="curve"/>
      <point x="1780" y="184" type="line"/>
      <point x="1708" y="116"/>
      <point x="1598" y="78"/>
      <point x="1496" y="78" type="curve" smooth="yes"/>
      <point x="1240" y="78"/>
      <point x="1084" y="234"/>
      <point x="1096" y="468" type="curve"/>
      <point x="1910" y="468" type="line"/>
      <point x="1938" y="764"/>
      <point x="1760" y="990"/>
      <point x="1464" y="990" type="curve" smooth="yes"/>
      <point x="1292" y="990"/>
      <point x="1144" y="910"/>
      <point x="1058" y="778" type="curve"/>
      <point x="1076" y="754" type="line"/>
      <point x="1076" y="960" type="line"/>
      <point x="964" y="960" type="line"/>
      <point x="964" y="754" type="line"/>
      <point x="982" y="780" type="line"/>
      <point x="900" y="898"/>
      <point x="780" y="990"/>
      <point x="584" y="990" type="curve" smooth="yes"/>
      <point x="284" y="990"/>
      <point x="80" y="758"/>
      <point x="80" y="480" type="curve" smooth="yes"/>
      <point x="80" y="202"/>
      <point x="284" y="-30"/>
    </contour>
    <contour>
      <point x="586" y="78" type="curve" smooth="yes"/>
      <point x="360" y="78"/>
      <point x="200" y="234"/>
      <point x="200" y="480" type="curve" smooth="yes"/>
      <point x="200" y="726"/>
      <point x="360" y="882"/>
      <point x="586" y="882" type="curve" smooth="yes"/>
      <point x="812" y="882"/>
      <point x="972" y="726"/>
      <point x="972" y="480" type="curve" smooth="yes"/>
      <point x="972" y="234"/>
      <point x="812" y="78"/>
    </contour>
    <contour>
      <point x="1100" y="572" type="line"/>
      <point x="1112" y="768"/>
      <point x="1262" y="882"/>
      <point x="1464" y="882" type="curve" smooth="yes"/>
      <point x="1672" y="882"/>
      <point x="1792" y="768"/>
      <point x="1790" y="572" type="curve"/>
    </contour>
  </outline>
</glyph>
<glyph name="commaturnedabovecomb.case" format="2">
  <anchor x="-788" y="1398" name="_top"/>
  <outline>
    <contour>
      <point x="-786" y="1660" type="curve" smooth="yes"/>
      <point x="-734" y="1660"/>
      <point x="-692" y="1696"/>
      <point x="-692" y="1742" type="curve" smooth="yes"/>
      <point x="-692" y="1796"/>
      <point x="-736" y="1832"/>
      <point x="-792" y="1832" type="curve"/>
      <point x="-786" y="1874"/>
      <point x="-710" y="1924"/>
      <point x="-640" y="1962" type="curve"/>
      <point x="-692" y="2016" type="line"/>
      <point x="-818" y="1942"/>
      <point x="-888" y="1856"/>
      <point x="-888" y="1766" type="curve" smooth="yes"/>
      <point x="-888" y="1702"/>
      <point x="-848" y="1660"/>
    </contour>
  </outline>
</glyph>
<glyph name="el-cy.loclBGR" format="2">
  <advance width="966"/>
  <outline>
    <contour>
      <point x="544" y="960" type="line"/>
      <point x="422" y="960" type="line"/>
      <point x="42" y="0" type="line"/>
      <point x="168" y="0" type="line"/>
      <point x="494" y="866" type="line"/>
      <point x="464" y="866" type="line"/>
      <point x="794" y="0" type="line"/>
      <point x="924" y="0" type="line"/>
    </contour>
  </outline>
</glyph>
<glyph name="four.dnom" format="2">
  <advance width="844"/>
  <outline>
    <contour>
      <point x="528" y="0" type="line"/>
      <point x="624" y="0" type="line"/>
      <point x="624" y="196" type="line"/>
      <point x="778" y="196" type="line"/>
      <point x="778" y="288" type="line"/>
      <point x="624" y="288" type="line"/>
      <point x="624" y="504" type="line"/>
      <point x="528" y="504" type="line"/>
      <point x="528" y="288" type="line"/>
      <point x="162" y="288" type="line"/>
      <point x="520" y="910" type="line"/>
      <point x="408" y="910" type="line"/>
      <point x="48" y="280" type="line"/>
      <point x="48" y="196" type="line"/>
      <point x="528" y="196" type="line"/>
    </contour>
  </outline>
</glyph>
<glyph name="ge-cy.loclBGR" format="2">
  <advance width="954"/>
  <anchor x="490" y="0" name="bottom"/>
  <anchor x="474" y="960" name="top"/>
  <outline>
    <contour>
      <point x="478" y="-30" type="curve" smooth="yes"/>
      <point x="620" y="-30"/>
      <point x="764" y="24"/>
      <point x="850" y="106" type="curve"/>
      <point x="794" y="190" type="line"/>
      <point x="710" y="114"/>
      <point x="594" y="78"/>
      <point x="480" y="78" type="curve" smooth="yes"/>
      <point x="330" y="78"/>
      <point x="234" y="148"/>
      <point x="234" y="248" type="curve" smooth="yes"/>
      <point x="234" y="384"/>
      <point x="370" y="410"/>
      <point x="512" y="448" type="curve" smooth="yes"/>
      <point x="664" y="490"/>
      <point x="828" y="556"/>
      <point x="828" y="730" type="curve" smooth="yes"/>
      <point x="828" y="894"/>
      <point x="680" y="1000"/>
      <point x="486" y="1000" type="curve" smooth="yes"/>
      <point x="350" y="1000"/>
      <point x="226" y="956"/>
      <point x="136" y="872" type="curve"/>
      <point x="186" y="786" type="line"/>
      <point x="256" y="852"/>
      <point x="372" y="892"/>
      <point x="488" y="892" type="curve" smooth="yes"/>
      <point x="616" y="892"/>
      <point x="708" y="824"/>
      <point x="708" y="730" type="curve" smooth="yes"/>
      <point x="708" y="614"/>
      <point x="610" y="580"/>
      <point x="460" y="538" type="curve" smooth="yes"/>
      <point x="298" y="494"/>
      <point x="114" y="428"/>
      <point x="114" y="248" type="curve" smooth="yes"/>
      <point x="114" y="70"/>
      <point x="260" y="-30"/>
    </contour>
  </outline>
</glyph>
<glyph name="hookabovecomb.case" format="2">
  <anchor x="-788" y="1398" name="_top"/>
  <outline>
    <contour>
      <point x="-850" y="1592" type="curve"/>
      <point x="-756" y="1592" type="line"/>
      <point x="-792" y="1664"/>
      <point x="-776" y="1688"/>
      <point x="-686" y="1724" type="curve" smooth="yes"/>
      <point x="-572" y="1770"/>
      <point x="-538" y="1802"/>
      <point x="-538" y="1874" type="curve" smooth="yes"/>
      <point x="-538" y="1960"/>
      <point x="-644" y="2024"/>
      <point x="-786" y="2024" type="curve" smooth="yes"/>
      <point x="-870" y="2024"/>
      <point x="-952" y="2008"/>
      <point x="-1020" y="1978" type="curve"/>
      <point x="-984" y="1904" type="line"/>
      <point x="-936" y="1926"/>
      <point x="-860" y="1942"/>
      <point x="-790" y="1942" type="curve" smooth="yes"/>
      <point x="-700" y="1942"/>
      <point x="-634" y="1908"/>
      <point x="-634" y="1856" type="curve" smooth="yes"/>
      <point x="-634" y="1814"/>
      <point x="-656" y="1802"/>
      <point x="-756" y="1768" type="curve" smooth="yes"/>
      <point x="-868" y="1730"/>
      <point x="-894" y="1676"/>
    </contour>
  </outline>
</glyph>
<glyph name="hookabovecomb.narrow" format="2">
  <anchor x="-586" y="960" name="_top"/>
  <outline>
    <contour>
      <point x="-642" y="1170" type="curve"/>
      <point x="-554" y="1170" type="line"/>
      <point x="-584" y="1248"/>
      <point x="-570" y="1274"/>
      <point x="-494" y="1314" type="curve" smooth="yes"/>
      <point x="-400" y="1362"/>
      <point x="-370" y="1398"/>
      <point x="-370" y="1474" type="curve" smooth="yes"/>
      <point x="-370" y="1566"/>
      <point x="-462" y="1634"/>
      <point x="-584" y="1634" type="curve" smooth="yes"/>
      <point x="-654" y="1634"/>
      <point x="-728" y="1618"/>
      <point x="-786" y="1586" type="curve"/>
      <point x="-756" y="1508" type="line"/>
      <point x="-712" y="1534"/>
      <point x="-648" y="1550"/>
      <point x="-594" y="1550" type="curve" smooth="yes"/>
      <point x="-520" y="1550"/>
      <point x="-464" y="1514"/>
      <point x="-464" y="1456" type="curve" smooth="yes"/>
      <point x="-464" y="1410"/>
      <point x="-484" y="1396"/>
      <point x="-564" y="1360" type="curve" smooth="yes"/>
      <point x="-658" y="1318"/>
      <point x="-682" y="1262"/>
    </contour>
  </outline>
</glyph>
<glyph name="iu-cy.loclBGR" format="2">
  <advance width="1634"/>
  <anchor x="226" y="0" name="bottom"/>
  <anchor x="282" y="1440" name="caron"/>
  <anchor x="226" y="1440" name="top"/>
  <outline>
    <contour>
      <point x="1048" y="-30" type="curve" smooth="yes"/>
      <point x="1338" y="-30"/>
      <point x="1554" y="202"/>
      <point x="1554" y="480" type="curve" smooth="yes"/>
      <point x="1554" y="758"/>
      <point x="1338" y="990"/>
      <point x="1048" y="990" type="curve" smooth="yes"/>
      <point x="758" y="990"/>
      <point x="542" y="758"/>
      <point x="542" y="480" type="curve" smooth="yes"/>
      <point x="542" y="202"/>
      <point x="758" y="-30"/>
    </contour>
    <contour>
      <point x="1048" y="78" type="curve" smooth="yes"/>
      <point x="822" y="78"/>
      <point x="662" y="234"/>
      <point x="662" y="480" type="curve" smooth="yes"/>
      <point x="662" y="726"/>
      <point x="822" y="882"/>
      <point x="1048" y="882" type="curve" smooth="yes"/>
      <point x="1274" y="882"/>
      <point x="1434" y="726"/>
      <point x="1434" y="480" type="curve" smooth="yes"/>
      <point x="1434" y="234"/>
      <point x="1274" y="78"/>
    </contour>
    <contour>
      <point x="254" y="564" type="line"/>
      <point x="254" y="460" type="line"/>
      <point x="624" y="460" type="line"/>
      <point x="624" y="564" type="line"/>
    </contour>
    <component base="l"/>
  </outline>
</glyph>
<glyph name="jdotless.calt" format="2">
  <advance width="452"/>
  <anchor x="226" y="960" name="top"/>
  <outline>
    <contour>
      <point x="94" y="-450" type="curve" smooth="yes"/>
      <point x="211" y="-450"/>
      <point x="282" y="-381"/>
      <point x="282" y="-234" type="curve" smooth="yes"/>
      <point x="282" y="960" type="line"/>
      <point x="170" y="960" type="line"/>
      <point x="170" y="-214" type="line" smooth="yes"/>
      <point x="170" y="-298"/>
      <point x="148" y="-342"/>
      <point x="78" y="-342" type="curve" smooth="yes"/>
      <point x="52" y="-342"/>
      <point x="26" y="-336"/>
      <point x="1" y="-325" type="curve"/>
      <point x="-30" y="-427" type="line"/>
      <point x="5" y="-440"/>
      <point x="47" y="-450"/>
    </contour>
  </outline>
</glyph>
<glyph name="macroncomb.case" format="2">
  <anchor x="-788" y="1398" name="_top"/>
  <outline>
    <contour>
      <point x="-1086" y="1648" type="line"/>
      <point x="-490" y="1648" type="line"/>
      <point x="-490" y="1748" type="line"/>
      <point x="-1086" y="1748" type="line"/>
    </contour>
  </outline>
</glyph>
<glyph name="one.dnom" format="2">
  <advance width="616"/>
  <outline>
    <contour>
      <point x="338" y="0" type="line"/>
      <point x="436" y="0" type="line"/>
      <point x="436" y="930" type="line"/>
      <point x="428" y="930" type="line"/>
      <point x="48" y="790" type="line"/>
      <point x="76" y="710" type="line"/>
      <point x="338" y="804" type="line"/>
    </contour>
  </outline>
</glyph>
<glyph name="softsign-cy.loclBGR" format="2">
  <advance width="1062"/>
  <guideline x="-83" y="-82" angle="0"/>
  <outline>
    <contour>
      <point x="562" y="-20" type="curve" smooth="yes"/>
      <point x="816" y="-20"/>
      <point x="982" y="142"/>
      <point x="982" y="342" type="curve" smooth="yes"/>
      <point x="982" y="540"/>
      <point x="812" y="704"/>
      <point x="576" y="704" type="curve" smooth="yes"/>
      <point x="438" y="704"/>
      <point x="300" y="642"/>
      <point x="248" y="550" type="curve"/>
      <point x="262" y="526" type="line"/>
      <point x="262" y="960" type="line"/>
      <point x="150" y="960" type="line"/>
      <point x="150" y="344" type="line" smooth="yes"/>
      <point x="150" y="120"/>
      <point x="324" y="-20"/>
    </contour>
    <contour>
      <point x="562" y="82" type="curve" smooth="yes"/>
      <point x="390" y="82"/>
      <point x="264" y="182"/>
      <point x="264" y="342" type="curve" smooth="yes"/>
      <point x="264" y="500"/>
      <point x="390" y="600"/>
      <point x="562" y="600" type="curve" smooth="yes"/>
      <point x="736" y="600"/>
      <point x="864" y="500"/>
      <point x="864" y="342" type="curve" smooth="yes"/>
      <point x="864" y="184"/>
      <point x="736" y="82"/>
    </contour>
  </outline>
</glyph>
<glyph name="two.dnom" format="2">
  <advance width="824"/>
  <outline>
    <contour>
      <point x="108" y="0" type="line"/>
      <point x="722" y="0" type="line"/>
      <point x="722" y="92" type="line"/>
      <point x="244" y="92" type="line"/>
      <point x="420" y="248" type="line" smooth="yes"/>
      <point x="618" y="424"/>
      <point x="700" y="534"/>
      <point x="700" y="664" type="curve" smooth="yes"/>
      <point x="700" y="826"/>
      <point x="572" y="930"/>
      <point x="388" y="930" type="curve" smooth="yes"/>
      <point x="283" y="930"/>
      <point x="189" y="898"/>
      <point x="118" y="837" type="curve"/>
      <point x="160" y="760" type="line"/>
      <point x="210" y="810"/>
      <point x="292" y="836"/>
      <point x="374" y="836" type="curve" smooth="yes"/>
      <point x="514" y="836"/>
      <point x="600" y="768"/>
      <point x="600" y="658" type="curve" smooth="yes"/>
      <point x="600" y="544"/>
      <point x="512" y="444"/>
      <point x="314" y="266" type="curve" smooth="yes"/>
      <point x="108" y="82" type="line"/>
    </contour>
  </outline>
</glyph>
